<svg version="1.1" xmlns="http://www.w3.org/2000/svg" viewBox="0 0 1868 552" width="1868" height="552">
  <!-- svg-source:excalidraw -->
  
  <defs>
    <style class="style-fonts">
      @font-face {
        font-family: "Virgil";
        src: url("https://excalidraw.com/Virgil.woff2");
      }
      @font-face {
        font-family: "Cascadia";
        src: url("https://excalidraw.com/Cascadia.woff2");
      }
      @font-face {
        font-family: "Assistant";
        src: url("https://excalidraw.com/Assistant-Regular.woff2");
      }
    </style>
    
  </defs>
  <rect x="0" y="0" width="1868" height="552" fill="#ffffff"></rect><g stroke-linecap="round" transform="translate(10 252.5) rotate(0 154.5 23.5)"><path d="M0 0 C112.91 -1.14, 224.17 -1.55, 309 0 M0 0 C107.18 -0.86, 214.53 0.22, 309 0 M309 0 C307.53 16.55, 309.46 34.18, 309 47 M309 0 C308.26 15.93, 309.83 33.53, 309 47 M309 47 C214.26 44.75, 118.29 44.6, 0 47 M309 47 C197.61 45.77, 87.07 46.17, 0 47 M0 47 C1.59 35.54, -1.21 20.84, 0 0 M0 47 C-0.26 30.42, 0.44 14.04, 0 0" stroke="#1e1e1e" stroke-width="2" fill="none"></path></g><g stroke-linecap="round" transform="translate(369 252.5) rotate(0 137 23.5)"><path d="M0 0 C106.57 -0.76, 212.65 -0.9, 274 0 M0 0 C84.79 2.5, 168.65 2.02, 274 0 M274 0 C274.16 18.99, 274.78 35.74, 274 47 M274 0 C274.14 18.06, 273.61 36.7, 274 47 M274 47 C209.5 44.97, 148.08 45.45, 0 47 M274 47 C198.25 44.57, 122.38 45.22, 0 47 M0 47 C-1.43 30.94, 0.57 16.8, 0 0 M0 47 C0.63 29.78, -0.41 11.85, 0 0" stroke="#1e1e1e" stroke-width="2" fill="none"></path></g><g stroke-linecap="round" transform="translate(693 252.5) rotate(0 178.5 23.5)"><path d="M0 0 C127.25 -0.38, 253.41 -0.23, 357 0 M0 0 C72.34 -1.25, 144.53 -1.65, 357 0 M357 0 C358.24 15.71, 358.77 27.5, 357 47 M357 0 C357.35 11.09, 356.59 20.79, 357 47 M357 47 C268.75 45.21, 178.68 44.81, 0 47 M357 47 C284.9 46.3, 213.34 46.6, 0 47 M0 47 C1.22 30.43, 1.51 12.49, 0 0 M0 47 C-0.74 32.69, -0.97 21.19, 0 0" stroke="#1e1e1e" stroke-width="2" fill="none"></path></g><g stroke-linecap="round" transform="translate(1100 252.5) rotate(0 117 23.5)"><path d="M0 0 C76.49 0.16, 151.08 1.06, 234 0 M0 0 C83.01 -0.42, 164.95 0.4, 234 0 M234 0 C235.92 15.95, 232.67 36.97, 234 47 M234 0 C233.35 14.52, 233.53 28.19, 234 47 M234 47 C177.79 45.36, 120.71 46.28, 0 47 M234 47 C173.93 48.56, 113.94 47.38, 0 47 M0 47 C1.04 34.23, -0.55 23.1, 0 0 M0 47 C-0.48 34.39, 0.31 20.88, 0 0" stroke="#1e1e1e" stroke-width="2" fill="none"></path></g><g stroke-linecap="round" transform="translate(1388 10) rotate(0 233 23.5)"><path d="M0 0 C146.88 0.13, 296.04 -0.2, 466 0 M0 0 C135.51 1.64, 271.26 1.78, 466 0 M466 0 C464.8 17.62, 466.53 33, 466 47 M466 0 C465.17 16.84, 465.06 35.65, 466 47 M466 47 C339.38 45.61, 214.18 45.42, 0 47 M466 47 C307.39 48.66, 148.04 49.12, 0 47 M0 47 C-0.62 32.72, -0.56 15.22, 0 0 M0 47 C0.42 38.28, 0.44 28.87, 0 0" stroke="#1e1e1e" stroke-width="2" fill="none"></path></g><g stroke-linecap="round" transform="translate(1444 107) rotate(0 177 23.5)"><path d="M0 0 C117.22 -1.29, 232.99 -0.99, 354 0 M0 0 C81.4 -0.21, 162.09 -0.04, 354 0 M354 0 C353.77 9.66, 355.09 17.68, 354 47 M354 0 C353.15 15.05, 353.46 28.69, 354 47 M354 47 C269.25 46.47, 186.11 47.19, 0 47 M354 47 C216.11 46.16, 78.84 46.26, 0 47 M0 47 C-0.19 32.54, -1.85 18.56, 0 0 M0 47 C0.07 29.78, -0.18 11.26, 0 0" stroke="#1e1e1e" stroke-width="2" fill="none"></path></g><g stroke-linecap="round" transform="translate(1449.5 204) rotate(0 171.5 23.5)"><path d="M0 0 C131.14 -0.13, 261.57 -0.88, 343 0 M0 0 C111.8 -0.72, 222.29 -1.8, 343 0 M343 0 C344.49 15.52, 343.19 32.77, 343 47 M343 0 C342.41 10.61, 342.09 20.7, 343 47 M343 47 C243.1 46.71, 143.29 47.2, 0 47 M343 47 C257.67 48.54, 171.89 48.01, 0 47 M0 47 C-1.87 28.82, 1.81 13.63, 0 0 M0 47 C-0.19 29.62, 0.43 10.1, 0 0" stroke="#1e1e1e" stroke-width="2" fill="none"></path></g><g stroke-linecap="round" transform="translate(1463 301) rotate(0 158 23.5)"><path d="M0 0 C108.45 -1.37, 219.28 -0.42, 316 0 M0 0 C111.8 -2.41, 225.39 -1.79, 316 0 M316 0 C316.5 13.41, 314.96 27.63, 316 47 M316 0 C315.24 15.89, 315.79 33.33, 316 47 M316 47 C231.56 48.52, 143.89 47.13, 0 47 M316 47 C205.54 48.31, 95.66 48.33, 0 47 M0 47 C2.2 35.28, 2.14 23.42, 0 0 M0 47 C0.54 27.44, 0.06 10.06, 0 0" stroke="#1e1e1e" stroke-width="2" fill="none"></path></g><g stroke-linecap="round" transform="translate(1384 398) rotate(0 237 23.5)"><path d="M0 0 C175.44 0.44, 350.94 0.16, 474 0 M0 0 C181.65 1.71, 362.8 2, 474 0 M474 0 C472.65 9.65, 475.22 21.15, 474 47 M474 0 C473.64 12.56, 473.42 26.38, 474 47 M474 47 C318.41 48.06, 164.15 48.6, 0 47 M474 47 C301.88 46.6, 129.05 46.23, 0 47 M0 47 C1.28 36.41, 1.58 25.1, 0 0 M0 47 C-0.22 30.32, -0.5 12.6, 0 0" stroke="#1e1e1e" stroke-width="2" fill="none"></path></g><g stroke-linecap="round" transform="translate(1407.5 495) rotate(0 213.5 23.5)"><path d="M0 0 C134.34 -1.28, 268.37 -2.81, 427 0 M0 0 C94.13 0.22, 187.83 -0.12, 427 0 M427 0 C427.86 11.11, 426.2 22.19, 427 47 M427 0 C426.68 9.88, 427.24 19.83, 427 47 M427 47 C271.87 46.55, 116.38 46.12, 0 47 M427 47 C305.52 46.2, 184.17 47.16, 0 47 M0 47 C1.6 32.19, 0.97 18.88, 0 0 M0 47 C-0.27 36.74, 0.49 25.44, 0 0" stroke="#1e1e1e" stroke-width="2" fill="none"></path></g><g stroke-linecap="round"><g transform="translate(319.5 276) rotate(0 24.5 0)"><path d="M0.59 0.99 C8.41 0.72, 39.65 -0.8, 47.83 -0.96 M-0.55 0.47 C7.52 0.26, 41.62 -0.08, 49.93 0.08" stroke="#1e1e1e" stroke-width="2" fill="none"></path></g><g transform="translate(319.5 276) rotate(0 24.5 0)"><path d="M26.89 8.41 C37.27 3.18, 42.79 3.14, 49.93 0.08 M26.89 8.41 C33.28 5.76, 40.53 2.43, 49.93 0.08" stroke="#1e1e1e" stroke-width="2" fill="none"></path></g><g transform="translate(319.5 276) rotate(0 24.5 0)"><path d="M26.93 -8.35 C37.38 -7.2, 42.9 -0.86, 49.93 0.08 M26.93 -8.35 C33.31 -5.85, 40.56 -4.03, 49.93 0.08" stroke="#1e1e1e" stroke-width="2" fill="none"></path></g></g><mask></mask><g stroke-linecap="round"><g transform="translate(643.5 276) rotate(0 24.5 0)"><path d="M-1.17 -0.96 C7.02 -1.11, 41.34 -0.22, 49.71 0.09 M0.42 1.16 C8.46 1.13, 41.15 2.03, 49.14 1.67" stroke="#1e1e1e" stroke-width="2" fill="none"></path></g><g transform="translate(643.5 276) rotate(0 24.5 0)"><path d="M26.15 10.13 C32.52 8.58, 42.29 4.58, 49.14 1.67 M26.15 10.13 C34.27 6.26, 42.74 4.39, 49.14 1.67" stroke="#1e1e1e" stroke-width="2" fill="none"></path></g><g transform="translate(643.5 276) rotate(0 24.5 0)"><path d="M26.09 -6.63 C32.62 -2.32, 42.42 -0.46, 49.14 1.67 M26.09 -6.63 C34.12 -4.25, 42.61 0.13, 49.14 1.67" stroke="#1e1e1e" stroke-width="2" fill="none"></path></g></g><mask></mask><g stroke-linecap="round"><g transform="translate(1050.5 276) rotate(0 24.5 0)"><path d="M0.71 0.09 C9.09 0.39, 41.17 0.87, 49.08 0.88 M-0.37 -0.91 C7.96 -0.85, 39.68 -1.18, 48.18 -0.79" stroke="#1e1e1e" stroke-width="2" fill="none"></path></g><g transform="translate(1050.5 276) rotate(0 24.5 0)"><path d="M25.03 7.25 C29.93 5.62, 35.94 2.48, 48.18 -0.79 M25.03 7.25 C31.58 5.52, 39.02 2.22, 48.18 -0.79" stroke="#1e1e1e" stroke-width="2" fill="none"></path></g><g transform="translate(1050.5 276) rotate(0 24.5 0)"><path d="M25.29 -9.51 C30 -7.74, 35.96 -7.48, 48.18 -0.79 M25.29 -9.51 C31.67 -6.08, 39.03 -4.22, 48.18 -0.79" stroke="#1e1e1e" stroke-width="2" fill="none"></path></g></g><mask></mask><g stroke-linecap="round"><g transform="translate(1231.261 252.5) rotate(0 78.11950000000002 -109.5)"><path d="M0.08 0.88 C21.12 -35.62, 100.99 -182.12, 126.92 -218.91 C152.84 -255.69, 150.87 -219.93, 155.63 -219.83 M-1.33 0.29 C20.02 -36, 103.22 -180.78, 129.2 -217.32 C155.18 -253.86, 150.19 -218.42, 154.55 -218.95" stroke="#1e1e1e" stroke-width="2" fill="none"></path></g><g transform="translate(1231.261 252.5) rotate(0 78.11950000000002 -109.5)"><path d="M145.11 -229.63 C149.55 -226.77, 152.01 -222.68, 154.55 -218.95 M145.11 -229.63 C147 -227.39, 148.95 -225.46, 154.55 -218.95" stroke="#1e1e1e" stroke-width="2" fill="none"></path></g><g transform="translate(1231.261 252.5) rotate(0 78.11950000000002 -109.5)"><path d="M154.18 -233.2 C155.36 -229.05, 154.56 -223.68, 154.55 -218.95 M154.18 -233.2 C153.96 -230.08, 153.82 -227.33, 154.55 -218.95" stroke="#1e1e1e" stroke-width="2" fill="none"></path></g></g><mask></mask><g stroke-linecap="round"><g transform="translate(1240.435 252.5) rotate(0 101.53250000000003 -61)"><path d="M-0.82 0.09 C18.82 -20.52, 84.1 -102.6, 117.96 -122.83 C151.82 -143.06, 188.2 -121.38, 202.33 -121.29 M0.95 -0.9 C20.98 -21.47, 86.37 -101.34, 120.35 -121.73 C154.33 -142.12, 191.1 -123.33, 204.83 -123.26" stroke="#1e1e1e" stroke-width="2" fill="none"></path></g><g transform="translate(1240.435 252.5) rotate(0 101.53250000000003 -61)"><path d="M180.13 -119.45 C187.84 -121.47, 193.88 -122.85, 204.83 -123.26 M180.13 -119.45 C188.39 -121.75, 197.81 -122.55, 204.83 -123.26" stroke="#1e1e1e" stroke-width="2" fill="none"></path></g><g transform="translate(1240.435 252.5) rotate(0 101.53250000000003 -61)"><path d="M183.46 -136.23 C190.27 -133.11, 195.29 -129.35, 204.83 -123.26 M183.46 -136.23 C190.47 -132.51, 198.7 -127.29, 204.83 -123.26" stroke="#1e1e1e" stroke-width="2" fill="none"></path></g></g><mask></mask><g stroke-linecap="round"><g transform="translate(1286.304 252.5) rotate(0 81.34799999999996 -12.5)"><path d="M-0.61 -0.83 C11.52 -4.9, 44.8 -20.22, 71.96 -24.29 C99.12 -28.37, 147.33 -24.97, 162.33 -25.28 M1.27 1.35 C13.86 -3.07, 47.6 -21.8, 74.28 -26.04 C100.97 -30.29, 146.79 -24.17, 161.38 -24.12" stroke="#1e1e1e" stroke-width="2" fill="none"></path></g><g transform="translate(1286.304 252.5) rotate(0 81.34799999999996 -12.5)"><path d="M137.4 -17.03 C141.56 -19.78, 149.68 -20.79, 161.38 -24.12 M137.4 -17.03 C144 -19.17, 150.41 -20.3, 161.38 -24.12" stroke="#1e1e1e" stroke-width="2" fill="none"></path></g><g transform="translate(1286.304 252.5) rotate(0 81.34799999999996 -12.5)"><path d="M138.45 -34.09 C142.38 -32.9, 150.25 -29.96, 161.38 -24.12 M138.45 -34.09 C144.65 -31.53, 150.77 -27.95, 161.38 -24.12" stroke="#1e1e1e" stroke-width="2" fill="none"></path></g></g><mask></mask><g stroke-linecap="round"><g transform="translate(1286.304 299.5) rotate(0 88.09799999999996 12.5)"><path d="M-0.74 0.71 C11.42 4.97, 42.97 20.86, 72.33 24.72 C101.7 28.57, 158.15 23.85, 175.45 23.82 M1.08 0.03 C13.1 4.54, 41.72 22.02, 71.19 26.1 C100.67 30.18, 160.43 24.64, 177.95 24.51" stroke="#1e1e1e" stroke-width="2" fill="none"></path></g><g transform="translate(1286.304 299.5) rotate(0 88.09799999999996 12.5)"><path d="M154.88 34.15 C161.88 31.28, 165.98 28.24, 177.95 24.51 M154.88 34.15 C159.25 32.71, 164.46 31.25, 177.95 24.51" stroke="#1e1e1e" stroke-width="2" fill="none"></path></g><g transform="translate(1286.304 299.5) rotate(0 88.09799999999996 12.5)"><path d="M154.09 17.06 C161.17 18.46, 165.46 19.68, 177.95 24.51 M154.09 17.06 C158.6 19.07, 163.97 21.05, 177.95 24.51" stroke="#1e1e1e" stroke-width="2" fill="none"></path></g></g><mask></mask><g stroke-linecap="round"><g transform="translate(1240.435 299.5) rotate(0 71.53250000000003 61)"><path d="M-0.36 -0.28 C19.4 19.73, 93.93 100.52, 117.82 120.82 C141.71 141.11, 138.83 121.21, 142.98 121.49 M1.65 -1.48 C21.86 18.58, 96.72 101.06, 120.14 121.73 C143.56 142.4, 138.39 122.8, 142.17 122.54" stroke="#1e1e1e" stroke-width="2" fill="none"></path></g><g transform="translate(1240.435 299.5) rotate(0 71.53250000000003 61)"><path d="M140.58 134.69 C140.6 131.04, 140.06 128.81, 142.17 122.54 M140.58 134.69 C141.19 132.1, 141.83 128.11, 142.17 122.54" stroke="#1e1e1e" stroke-width="2" fill="none"></path></g><g transform="translate(1240.435 299.5) rotate(0 71.53250000000003 61)"><path d="M133.15 130.83 C134.96 128.12, 136.19 126.82, 142.17 122.54 M133.15 130.83 C135.66 129.2, 138.21 126.21, 142.17 122.54" stroke="#1e1e1e" stroke-width="2" fill="none"></path></g></g><mask></mask><g stroke-linecap="round"><g transform="translate(1231.261 299.5) rotate(0 87.86950000000002 109.5)"><path d="M-0.75 -1.18 C20.59 35.28, 98.3 181.71, 127.65 218.49 C157.01 255.27, 167.32 219.23, 175.39 219.49 M1.06 0.81 C22.27 37.46, 97.76 183.66, 126.66 219.76 C155.56 255.86, 166.14 217.69, 174.45 217.41" stroke="#1e1e1e" stroke-width="2" fill="none"></path></g><g transform="translate(1231.261 299.5) rotate(0 87.86950000000002 109.5)"><path d="M162.88 238.44 C164.08 232.69, 168.32 226.59, 174.45 217.41 M162.88 238.44 C167.41 230.66, 170.37 224.48, 174.45 217.41" stroke="#1e1e1e" stroke-width="2" fill="none"></path></g><g transform="translate(1231.261 299.5) rotate(0 87.86950000000002 109.5)"><path d="M152.07 226.08 C156.15 223.74, 163.32 220.96, 174.45 217.41 M152.07 226.08 C160.32 222.42, 166.97 220.46, 174.45 217.41" stroke="#1e1e1e" stroke-width="2" fill="none"></path></g></g><mask></mask><g transform="translate(36.5 263.5) rotate(0 128 12.5)"><text x="128" y="0" font-family="Virgil, Segoe UI Emoji" font-size="20px" fill="#1e1e1e" text-anchor="middle" style="white-space: pre;" direction="ltr" dominant-baseline="text-before-edge">Create Streamlit Web App</text></g><g transform="translate(388.5 263.5) rotate(0 117.5 12.5)"><text x="117.5" y="0" font-family="Virgil, Segoe UI Emoji" font-size="20px" fill="#1e1e1e" text-anchor="middle" style="white-space: pre;" direction="ltr" dominant-baseline="text-before-edge">Display Select Products</text></g><g transform="translate(718 263.5) rotate(0 153.5 12.5)"><text x="153.5" y="0" font-family="Virgil, Segoe UI Emoji" font-size="20px" fill="#1e1e1e" text-anchor="middle" style="white-space: pre;" direction="ltr" dominant-baseline="text-before-edge">Display All Products Quantities</text></g><g transform="translate(1123 263.5) rotate(0 94 12.5)"><text x="94" y="0" font-family="Virgil, Segoe UI Emoji" font-size="20px" fill="#1e1e1e" text-anchor="middle" style="white-space: pre;" direction="ltr" dominant-baseline="text-before-edge">Display All Revenue</text></g><g transform="translate(1415.5 21) rotate(0 205.5 12.5)"><text x="205.5" y="0" font-family="Virgil, Segoe UI Emoji" font-size="20px" fill="#1e1e1e" text-anchor="middle" style="white-space: pre;" direction="ltr" dominant-baseline="text-before-edge">Create Chart Graph for Motivo Abertura</text></g><g transform="translate(1460.5 118) rotate(0 160.5 12.5)"><text x="160.5" y="0" font-family="Virgil, Segoe UI Emoji" font-size="20px" fill="#1e1e1e" text-anchor="middle" style="white-space: pre;" direction="ltr" dominant-baseline="text-before-edge">Create Chart Graph for Status</text></g><g transform="translate(1470 215) rotate(0 151 12.5)"><text x="151" y="0" font-family="Virgil, Segoe UI Emoji" font-size="20px" fill="#1e1e1e" text-anchor="middle" style="white-space: pre;" direction="ltr" dominant-baseline="text-before-edge">Create Chart Graph for Focal</text></g><g transform="translate(1481 312) rotate(0 140 12.5)"><text x="140" y="0" font-family="Virgil, Segoe UI Emoji" font-size="20px" fill="#1e1e1e" text-anchor="middle" style="white-space: pre;" direction="ltr" dominant-baseline="text-before-edge">Create Chart Graph for PO</text></g><g transform="translate(1420 409) rotate(0 201 12.5)"><text x="201" y="0" font-family="Virgil, Segoe UI Emoji" font-size="20px" fill="#1e1e1e" text-anchor="middle" style="white-space: pre;" direction="ltr" dominant-baseline="text-before-edge">Create Chart Graph for Superintendente</text></g><g transform="translate(1436.5 506) rotate(0 184.5 12.5)"><text x="184.5" y="0" font-family="Virgil, Segoe UI Emoji" font-size="20px" fill="#1e1e1e" text-anchor="middle" style="white-space: pre;" direction="ltr" dominant-baseline="text-before-edge">Create Chart Graph for Demandante</text></g></svg>