<svg version="1.1" xmlns="http://www.w3.org/2000/svg" viewBox="0 0 1364 67" width="1364" height="67">
  <!-- svg-source:excalidraw -->
  
  <defs>
    <style class="style-fonts">
      @font-face {
        font-family: "Virgil";
        src: url("https://excalidraw.com/Virgil.woff2");
      }
      @font-face {
        font-family: "Cascadia";
        src: url("https://excalidraw.com/Cascadia.woff2");
      }
      @font-face {
        font-family: "Assistant";
        src: url("https://excalidraw.com/Assistant-Regular.woff2");
      }
    </style>
    
  </defs>
  <rect x="0" y="0" width="1364" height="67" fill="#ffffff"></rect><g stroke-linecap="round" transform="translate(10 10) rotate(0 86 23.5)"><path d="M0 0 C48.46 -1.61, 101.99 -0.59, 172 0 M0 0 C34.65 -0.72, 71.11 -1.71, 172 0 M172 0 C173.51 13.43, 171.13 30.18, 172 47 M172 0 C172.35 10.75, 172.24 22.02, 172 47 M172 47 C121.45 48.5, 70.81 47.21, 0 47 M172 47 C107.8 47.51, 42.65 47.28, 0 47 M0 47 C-0.7 34.94, 1.18 20.13, 0 0 M0 47 C0.44 33.37, 0.19 20.86, 0 0" stroke="#1e1e1e" stroke-width="2" fill="none"></path></g><g stroke-linecap="round" transform="translate(232 10) rotate(0 49.5 23.5)"><path d="M0 0 C35.54 0.58, 66.02 0.29, 99 0 M0 0 C36.69 -0.98, 73.87 -1.06, 99 0 M99 0 C98.8 13.4, 97.97 27.08, 99 47 M99 0 C99.26 19, 99.08 36.13, 99 47 M99 47 C64.38 46.53, 30.13 47.24, 0 47 M99 47 C62.46 45.59, 26.76 45.45, 0 47 M0 47 C0.99 28.52, -0.12 8.96, 0 0 M0 47 C-0.12 33.35, 0.44 20.01, 0 0" stroke="#1e1e1e" stroke-width="2" fill="none"></path></g><g stroke-linecap="round" transform="translate(381 10) rotate(0 116 23.5)"><path d="M0 0 C57.91 -0.26, 120.18 -1.79, 232 0 M0 0 C81.77 0.45, 163.05 1.67, 232 0 M232 0 C230.41 10.68, 233.68 21.05, 232 47 M232 0 C232.03 13.68, 232.62 28.78, 232 47 M232 47 C157.28 46.25, 81.12 46.67, 0 47 M232 47 C175.98 44.56, 120.99 44.89, 0 47 M0 47 C-0.56 28.71, -0.27 12.51, 0 0 M0 47 C0.56 35.76, 0.05 22.44, 0 0" stroke="#1e1e1e" stroke-width="2" fill="none"></path></g><g stroke-linecap="round" transform="translate(663 10) rotate(0 78.5 23.5)"><path d="M0 0 C49.67 -1.84, 97.5 -0.18, 157 0 M0 0 C39.58 1.75, 78.67 0.56, 157 0 M157 0 C158.48 14.76, 156.75 28.81, 157 47 M157 0 C157.53 17.16, 157.26 34.27, 157 47 M157 47 C116.98 47.44, 73.21 46, 0 47 M157 47 C123.86 44.92, 89.53 45.85, 0 47 M0 47 C0 33.06, -0.8 18.1, 0 0 M0 47 C-0.21 31.28, -0.55 17.04, 0 0" stroke="#1e1e1e" stroke-width="2" fill="none"></path></g><g stroke-linecap="round" transform="translate(870 10) rotate(0 89 23.5)"><path d="M0 0 C53.16 1.44, 103.32 2.14, 178 0 M0 0 C42.79 -1.88, 87.24 -2.3, 178 0 M178 0 C178.52 15.35, 179.66 30.03, 178 47 M178 0 C178.54 11.42, 177.89 23.02, 178 47 M178 47 C123.73 46.44, 70.17 47.16, 0 47 M178 47 C142.43 46.34, 105.49 45.78, 0 47 M0 47 C-0.87 34.76, 0.47 23.63, 0 0 M0 47 C-0.31 29.68, 0.53 11.36, 0 0" stroke="#1e1e1e" stroke-width="2" fill="none"></path></g><g stroke-linecap="round" transform="translate(1098 10) rotate(0 128 23.5)"><path d="M0 0 C51.06 0.63, 102.75 0.04, 256 0 M0 0 C99.49 0.05, 199.1 1.37, 256 0 M256 0 C257.25 15.2, 254.76 31.67, 256 47 M256 0 C255.76 15.61, 256.11 30.37, 256 47 M256 47 C171.89 45.79, 88.91 47.55, 0 47 M256 47 C193.96 47.59, 131.48 47.71, 0 47 M0 47 C0.66 32.83, 1.73 16.52, 0 0 M0 47 C0.69 35.23, 0.22 24.17, 0 0" stroke="#1e1e1e" stroke-width="2" fill="none"></path></g><g stroke-linecap="round"><g transform="translate(182.5 33.5) rotate(0 24.5 0)"><path d="M0.24 -0.66 C8.41 -0.39, 40.84 1.01, 48.81 1.06 M-1.09 1.61 C6.92 1.61, 39.17 -0.36, 47.75 -0.5" stroke="#1e1e1e" stroke-width="2" fill="none"></path></g><g transform="translate(182.5 33.5) rotate(0 24.5 0)"><path d="M25.09 8.8 C30.5 5.78, 39.84 1.82, 47.75 -0.5 M25.09 8.8 C31.39 7.37, 37.54 4, 47.75 -0.5" stroke="#1e1e1e" stroke-width="2" fill="none"></path></g><g transform="translate(182.5 33.5) rotate(0 24.5 0)"><path d="M24.41 -7.94 C29.94 -6.19, 39.47 -5.37, 47.75 -0.5 M24.41 -7.94 C30.9 -4.86, 37.23 -3.72, 47.75 -0.5" stroke="#1e1e1e" stroke-width="2" fill="none"></path></g></g><mask></mask><g stroke-linecap="round"><g transform="translate(331.5 33.5) rotate(0 24.5 0)"><path d="M-0.19 1.06 C7.77 1.11, 39.82 -0.05, 48.02 -0.37 M-1.76 0.57 C6.55 0.85, 41.88 1.07, 50.22 0.97" stroke="#1e1e1e" stroke-width="2" fill="none"></path></g><g transform="translate(331.5 33.5) rotate(0 24.5 0)"><path d="M27.21 9.37 C36.4 5.09, 41.38 4.09, 50.22 0.97 M27.21 9.37 C32.68 7.29, 37.81 5.95, 50.22 0.97" stroke="#1e1e1e" stroke-width="2" fill="none"></path></g><g transform="translate(331.5 33.5) rotate(0 24.5 0)"><path d="M27.19 -7.39 C36.3 -6.3, 41.29 -1.93, 50.22 0.97 M27.19 -7.39 C32.71 -5.65, 37.84 -3.17, 50.22 0.97" stroke="#1e1e1e" stroke-width="2" fill="none"></path></g></g><mask></mask><g stroke-linecap="round"><g transform="translate(613.5 33.5) rotate(0 24.5 0)"><path d="M-0.98 -0.37 C7.23 -0.69, 40.67 -1.11, 49.04 -0.87 M0.71 -1.61 C8.78 -1.29, 40.13 0.06, 48.11 0.21" stroke="#1e1e1e" stroke-width="2" fill="none"></path></g><g transform="translate(613.5 33.5) rotate(0 24.5 0)"><path d="M24.83 7.83 C30.75 5.93, 36.53 4.11, 48.11 0.21 M24.83 7.83 C34.06 5.46, 42.98 1.23, 48.11 0.21" stroke="#1e1e1e" stroke-width="2" fill="none"></path></g><g transform="translate(613.5 33.5) rotate(0 24.5 0)"><path d="M25.38 -8.92 C31.29 -6.07, 36.92 -3.14, 48.11 0.21 M25.38 -8.92 C34.44 -4.74, 43.14 -2.41, 48.11 0.21" stroke="#1e1e1e" stroke-width="2" fill="none"></path></g></g><mask></mask><g stroke-linecap="round"><g transform="translate(820.5 33.5) rotate(0 24.5 0)"><path d="M0.04 -0.87 C8.41 -0.62, 41.03 0.94, 49.24 1.09 M-1.4 1.29 C6.92 1.26, 40.08 -0.47, 48.43 -0.46" stroke="#1e1e1e" stroke-width="2" fill="none"></path></g><g transform="translate(820.5 33.5) rotate(0 24.5 0)"><path d="M25.65 8.57 C29.21 7, 37.46 5.12, 48.43 -0.46 M25.65 8.57 C32.53 5.05, 40.06 3.1, 48.43 -0.46" stroke="#1e1e1e" stroke-width="2" fill="none"></path></g><g transform="translate(820.5 33.5) rotate(0 24.5 0)"><path d="M25.18 -8.18 C28.79 -6.09, 37.14 -4.31, 48.43 -0.46 M25.18 -8.18 C32.22 -6.6, 39.9 -3.46, 48.43 -0.46" stroke="#1e1e1e" stroke-width="2" fill="none"></path></g></g><mask></mask><g stroke-linecap="round"><g transform="translate(1048.5 33.5) rotate(0 24.5 0)"><path d="M0.24 1.09 C8.46 1.25, 41.15 0.11, 49.3 0.05 M-1.09 0.62 C6.99 1.06, 40.25 1.92, 48.51 1.62" stroke="#1e1e1e" stroke-width="2" fill="none"></path></g><g transform="translate(1048.5 33.5) rotate(0 24.5 0)"><path d="M25.49 10 C34.36 7.91, 39.61 5.16, 48.51 1.62 M25.49 10 C34.37 7.28, 42.42 4.36, 48.51 1.62" stroke="#1e1e1e" stroke-width="2" fill="none"></path></g><g transform="translate(1048.5 33.5) rotate(0 24.5 0)"><path d="M25.49 -6.76 C34.23 -3.76, 39.48 -1.43, 48.51 1.62 M25.49 -6.76 C34.36 -3.42, 42.41 -0.28, 48.51 1.62" stroke="#1e1e1e" stroke-width="2" fill="none"></path></g></g><mask></mask><g transform="translate(31 21) rotate(0 65 12.5)"><text x="65" y="0" font-family="Virgil, Segoe UI Emoji" font-size="20px" fill="#1e1e1e" text-anchor="middle" style="white-space: pre;" direction="ltr" dominant-baseline="text-before-edge">webDriverGet</text></g><g transform="translate(248.5 21) rotate(0 33 12.5)"><text x="33" y="0" font-family="Virgil, Segoe UI Emoji" font-size="20px" fill="#1e1e1e" text-anchor="middle" style="white-space: pre;" direction="ltr" dominant-baseline="text-before-edge">ClickUp</text></g><g transform="translate(396.5 21) rotate(0 100.5 12.5)"><text x="100.5" y="0" font-family="Virgil, Segoe UI Emoji" font-size="20px" fill="#1e1e1e" text-anchor="middle" style="white-space: pre;" direction="ltr" dominant-baseline="text-before-edge">ExtractProjetosXlsx</text></g><g transform="translate(676 21) rotate(0 65.5 12.5)"><text x="65.5" y="0" font-family="Virgil, Segoe UI Emoji" font-size="20px" fill="#1e1e1e" text-anchor="middle" style="white-space: pre;" direction="ltr" dominant-baseline="text-before-edge">ValidateData</text></g><g transform="translate(882 21) rotate(0 77 12.5)"><text x="77" y="0" font-family="Virgil, Segoe UI Emoji" font-size="20px" fill="#1e1e1e" text-anchor="middle" style="white-space: pre;" direction="ltr" dominant-baseline="text-before-edge">TransformData</text></g><g transform="translate(1114 21) rotate(0 112 12.5)"><text x="112" y="0" font-family="Virgil, Segoe UI Emoji" font-size="20px" fill="#1e1e1e" text-anchor="middle" style="white-space: pre;" direction="ltr" dominant-baseline="text-before-edge">LoadDataInDashboard</text></g></svg>